<svg id="Layer_1" data-name="Layer 1" xmlns="http://www.w3.org/2000/svg" viewBox="0 0 350 350"><defs><style>.cls-1{fill:#cccccb}.cls-2{fill:#404140}.cls-3{fill:#727374}.cls-4{fill:#595b5c}.cls-5{fill:#fcb549}.cls-6{fill:#cb7a29}.cls-7{fill:#f89923}.cls-8{fill:url(#linear-gradient)}</style><linearGradient id="linear-gradient" x1="175" x2="175" y2="350" gradientUnits="userSpaceOnUse"><stop offset="0" stop-color="#fff" stop-opacity=".1"/><stop offset="1" stop-opacity="0"/></linearGradient></defs><title>MacroMealeyBlogIcon</title><circle class="cls-1" cx="175" cy="175" r="175"/><path class="cls-2" d="M274 229.89H135.25l-48.75 33.3 15.75-33.29H76a13.56 13.56 0 0 1-13.5-13.54v-114A13.56 13.56 0 0 1 76 88.81h198a13.56 13.56 0 0 1 13.5 13.54v114a13.56 13.56 0 0 1-13.5 13.54z"/><path class="cls-3" d="M274 227.89H135.25l-48.75 33.3 15.75-33.29H76a13.56 13.56 0 0 1-13.5-13.54v-114A13.56 13.56 0 0 1 76 86.81h198a13.56 13.56 0 0 1 13.5 13.54v114a13.56 13.56 0 0 1-13.5 13.54z"/><path class="cls-4" d="M274 228.89H135.25l-48.75 33.3 15.75-33.29H76a13.56 13.56 0 0 1-13.5-13.54v-114A13.56 13.56 0 0 1 76 87.81h198a13.56 13.56 0 0 1 13.5 13.54v114a13.56 13.56 0 0 1-13.5 13.54z"/><g id="PEN"><path class="cls-5" transform="rotate(-45 223.078 115.128)" d="M221.58 105.13h3v20h-3z"/><path class="cls-6" transform="rotate(-45 223.085 116.135)" d="M221.58 106.13h3v20h-3z"/><path class="cls-7" transform="rotate(-45 223.084 115.626)" d="M221.58 105.63h3v20h-3z"/><path class="cls-5" d="M232.63 119.73l-14.14-14.14 2.56-2.56a4.39 4.39 0 0 1 6.19 0l8 8a4.39 4.39 0 0 1 0 6.19z"/><path class="cls-6" d="M232.63 120.73l-14.14-14.14 2.56-2.56a4.39 4.39 0 0 1 6.19 0l8 8a4.39 4.39 0 0 1 0 6.19z"/><path class="cls-7" d="M232.63 120.23l-14.14-14.14 2.56-2.56a4.39 4.39 0 0 1 6.19 0l8 8a4.39 4.39 0 0 1 0 6.19z"/><path class="cls-5" d="M122.32 210.24l2.83-11.32 4.95 2.12 2.12 4.96 4.95 2.12 2.12 4.95-11.31 2.82-5.66-5.65z"/><path class="cls-6" d="M122.32 211.24l2.83-11.32 4.95 2.12 2.12 4.96 4.95 2.12 2.12 4.95-11.31 2.82-5.66-5.65z"/><path class="cls-7" d="M122.32 210.74l2.83-11.32 4.95 2.12 2.12 4.96 4.95 2.12 2.12 4.95-11.31 2.82-5.66-5.65z"/><path class="cls-5" d="M126.56 197.51l86.98-86.98 14.14 14.15-86.97 86.97-2.13-4.95-4.95-2.12-2.12-4.95-4.95-2.12z"/><path class="cls-6" d="M126.56 198.51l86.98-86.98 14.14 14.15-86.97 86.97-2.13-4.95-4.95-2.12-2.12-4.95-4.95-2.12z"/><path class="cls-7" d="M126.56 198.01l86.98-86.98 14.14 14.15-86.97 86.97-2.13-4.95-4.95-2.12-2.12-4.95-4.95-2.12z"/><path class="cls-5" d="M121.61 212.36l4.25 4.24-7.08 2.83 2.83-7.07z"/><path class="cls-6" d="M121.61 213.36l4.25 4.24-7.08 2.83 2.83-7.07z"/><path class="cls-7" d="M121.61 212.86l4.25 4.24-7.08 2.83 2.83-7.07z"/></g><circle class="cls-8" cx="175" cy="175" r="175"/></svg>