<svg id="macromealey-logo" data-name="macromealey-logo" xmlns="http://www.w3.org/2000/svg" viewBox="0 0 300 249.97"><defs><style>.cls-1{fill:#3296d2}.cls-2{fill:#006596}</style></defs><title>MacroMealeyLogoRounded</title><path class="cls-1" d="M75 50l17.9 17.9L100 75l25 25 25 25 25-25 25-25 7.1-7.1L225 50l25-25 17.83-17.83L275 0h-50l-25 25-25 25-2.53 2.53L150 75l-22.47-22.47L125 50l-25-25L75 0H25l7.17 7.17L50 25l25 25z"/><path class="cls-2" d="M347.83 137.17L330 155l-25 25-17.9 17.9A100 100 0 0 1 232.58 380a150 150 0 0 0 115.25-242.8zM130 280a99.88 99.88 0 0 1 42.9-82.1L155 180l-25-25-17.83-17.83A150 150 0 0 0 227.42 380 100 100 0 0 1 130 280z" transform="translate(-80 -130)"/></svg>