<svg id="macromealey-logo" data-name="macromealey-logo" xmlns="http://www.w3.org/2000/svg" viewBox="0 0 300 249.97">
  <defs>
  <style>
  .cls-1{fill:#3296d2;}.cls-2{fill:#006596;}</style>
  </defs>
  <title>MacroMealeyLogoRounded</title>
  <polygon class="cls-1" points="75 50 92.9 67.9 100 75 125 100 150 125 175 100 200 75 207.1 67.9 225 50 250 25 267.83 7.17 275 0 261.79 0 225 0 200 25 175 50 172.47 52.53 150 75 127.53 52.53 125 50 100 25 75 0 38.21 0 25 0 32.17 7.17 50 25 75 50"/>
  <path class="cls-2" d="M347.83,137.17,330,155l-25,25-17.9,17.9A100,100,0,0,1,232.58,380a150,150,0,0,0,115.25-242.8Z" transform="translate(-80 -130)"/>
  <path class="cls-2" d="M130,280a99.88,99.88,0,0,1,42.9-82.1L155,180l-25-25-17.83-17.83A150,150,0,0,0,227.42,380,100,100,0,0,1,130,280Z" transform="translate(-80 -130)"/>
</svg>
