<svg id="icon--spritesheet" data-name="Icon Spritesheet" xmlns="http://www.w3.org/2000/svg" viewBox="0 0 350 350"><defs><style>.nobel{fill:#b5b5b5}.tundora{fill:#423c3c}.dove-gray{fill:#756b6b}.don-juan{fill:#5b5252}.dixie{fill:#e5971a}.lightning-yellow{fill:#ffc31a}.sin{fill:#ffac1a}.mango-tango{fill:#db7200}.web-orange{fill:#fca800}.tree-poppy{fill:#f78700}.gradiant{fill:url(#linear-gradient)}</style><linearGradient id="linear-gradient" x1="175" x2="175" y2="350" gradientUnits="userSpaceOnUse"><stop offset="0" stop-color="#fff" stop-opacity=".1"/><stop offset="1" stop-opacity="0"/></linearGradient></defs><symbol id="about-icon"><circle class="nobel" cx="175" cy="175" r="175"/><path class="tundora" d="M275 176.88a100 100 0 0 1-145.37 88.26c-5.64-2.87-52 8.57-56.95 4.72 0 0 35.22-19.62 32.53-22.25A100 100 0 1 1 275 176.88z"/><path class="dove-gray" d="M275 173.12a100 100 0 0 1-143.81 90.79c-5.69-2.78-51.84 9.48-56.86 5.72 0 0 34.87-20.23 32.13-22.81A100 100 0 1 1 275 173.12z"/><path class="don-juan" d="M275 175a100 100 0 0 1-144.6 89.53c-5.66-2.83-51.92 9-56.9 5.22 0 0 35-19.93 32.33-22.53A100 100 0 1 1 275 175z"/><g id="iIcon"><rect class="mango-tango" x="162.5" y="151" width="25" height="100" rx="12" ry="12"/><rect class="web-orange" x="162.5" y="149" width="25" height="100" rx="12" ry="12"/><rect class="tree-poppy" x="162.5" y="150" width="25" height="100" rx="12" ry="12"/><circle class="mango-tango" cx="175" cy="129" r="12.5"/><circle class="web-orange" cx="175" cy="127" r="12.5"/><circle class="tree-poppy" cx="175" cy="128" r="12.5"/></g><circle class="gradiant" cx="175" cy="175" r="175"/></symbol><symbol id="blog-icon"><circle class="nobel" cx="175" cy="175" r="175"/><path class="tundora" d="M274 229.89H135.25l-48.75 33.3 15.75-33.29H76a13.56 13.56 0 0 1-13.5-13.54v-114A13.56 13.56 0 0 1 76 88.81h198a13.56 13.56 0 0 1 13.5 13.54v114a13.56 13.56 0 0 1-13.5 13.54z"/><path class="dove-gray" d="M274 227.89H135.25l-48.75 33.3 15.75-33.29H76a13.56 13.56 0 0 1-13.5-13.54v-114A13.56 13.56 0 0 1 76 86.81h198a13.56 13.56 0 0 1 13.5 13.54v114a13.56 13.56 0 0 1-13.5 13.54z"/><path class="don-juan" d="M274 228.89H135.25l-48.75 33.3 15.75-33.29H76a13.56 13.56 0 0 1-13.5-13.54v-114A13.56 13.56 0 0 1 76 87.81h198a13.56 13.56 0 0 1 13.5 13.54v114a13.56 13.56 0 0 1-13.5 13.54z"/><g id="PEN"><path class="web-orange" transform="rotate(-45 223.078 115.128)" d="M221.58 105.13h3v20h-3z"/><path class="mango-tango" transform="rotate(-45 223.085 116.135)" d="M221.58 106.13h3v20h-3z"/><path class="tree-poppy" transform="rotate(-45 223.084 115.626)" d="M221.58 105.63h3v20h-3z"/><path class="web-orange" d="M232.63 119.73l-14.14-14.14 2.56-2.56a4.39 4.39 0 0 1 6.19 0l8 8a4.39 4.39 0 0 1 0 6.19z"/><path class="mango-tango" d="M232.63 120.73l-14.14-14.14 2.56-2.56a4.39 4.39 0 0 1 6.19 0l8 8a4.39 4.39 0 0 1 0 6.19z"/><path class="tree-poppy" d="M232.63 120.23l-14.14-14.14 2.56-2.56a4.39 4.39 0 0 1 6.19 0l8 8a4.39 4.39 0 0 1 0 6.19z"/><path class="web-orange" d="M122.32 210.24l2.83-11.32 4.95 2.12 2.12 4.96 4.95 2.12 2.12 4.95-11.31 2.82-5.66-5.65z"/><path class="mango-tango" d="M122.32 211.24l2.83-11.32 4.95 2.12 2.12 4.96 4.95 2.12 2.12 4.95-11.31 2.82-5.66-5.65z"/><path class="tree-poppy" d="M122.32 210.74l2.83-11.32 4.95 2.12 2.12 4.96 4.95 2.12 2.12 4.95-11.31 2.82-5.66-5.65z"/><path class="web-orange" d="M126.56 197.51l86.98-86.98 14.14 14.15-86.97 86.97-2.13-4.95-4.95-2.12-2.12-4.95-4.95-2.12z"/><path class="mango-tango" d="M126.56 198.51l86.98-86.98 14.14 14.15-86.97 86.97-2.13-4.95-4.95-2.12-2.12-4.95-4.95-2.12z"/><path class="tree-poppy" d="M126.56 198.01l86.98-86.98 14.14 14.15-86.97 86.97-2.13-4.95-4.95-2.12-2.12-4.95-4.95-2.12z"/><path class="web-orange" d="M121.61 212.36l4.25 4.24-7.08 2.83 2.83-7.07z"/><path class="mango-tango" d="M121.61 213.36l4.25 4.24-7.08 2.83 2.83-7.07z"/><path class="tree-poppy" d="M121.61 212.86l4.25 4.24-7.08 2.83 2.83-7.07z"/></g><circle class="gradiant" cx="175" cy="175" r="175"/></symbol><symbol id="contact-icon"><circle class="nobel" cx="175" cy="175" r="175"/><rect class="don-juan" x="62.5" y="112.5" width="225" height="125" rx="12" ry="12"/><path class="tree-poppy" d="M275.5 113.5h-201a12 12 0 0 0-12 12v101a12 12 0 0 0 12 12h201a12 12 0 0 0 12-12v-101a12 12 0 0 0-12-12zm-4 4a11.88 11.88 0 0 1 2.84.36L175 168l-99.34-50.14a11.88 11.88 0 0 1 2.84-.36zm12 105a12 12 0 0 1-12 12h-193a12 12 0 0 1-12-12v-93A12 12 0 0 1 70 121l105 55 105-55a12 12 0 0 1 3.53 8.48z"/><path class="web-orange" d="M275.5 111.5h-201a12 12 0 0 0-12 12v101a12 12 0 0 0 12 12h201a12 12 0 0 0 12-12v-101a12 12 0 0 0-12-12zm-4 4a11.88 11.88 0 0 1 2.84.36L175 166l-99.34-50.14a11.88 11.88 0 0 1 2.84-.36zm12 105a12 12 0 0 1-12 12h-193a12 12 0 0 1-12-12v-93A12 12 0 0 1 70 119l105 55 105-55a12 12 0 0 1 3.53 8.48z"/><path class="tree-poppy" d="M275.5 112.5h-201a12 12 0 0 0-12 12v101a12 12 0 0 0 12 12h201a12 12 0 0 0 12-12v-101a12 12 0 0 0-12-12zm-4 4a11.88 11.88 0 0 1 2.84.36L175 167l-99.34-50.14a11.88 11.88 0 0 1 2.84-.36zm12 105a12 12 0 0 1-12 12h-193a12 12 0 0 1-12-12v-93A12 12 0 0 1 70 120l105 55 105-55a12 12 0 0 1 3.53 8.48z"/><circle class="gradiant" cx="175" cy="175" r="175"/></symbol><symbol id="lab-icon"><circle class="nobel" cx="175" cy="175" r="175"/><g id="FLASK"><path class="tundora" d="M206.5 150.63V76.38h2.7a10.83 10.83 0 0 0 10.8-10.8v-9.9a10.83 10.83 0 0 0-10.8-10.8h-68.4a10.83 10.83 0 0 0-10.8 10.8v9.9a10.83 10.83 0 0 0 10.8 10.8h2.7v74.25s-81 122.29-81 124.2c0 10 10.8 10.8 10.8 10.8h203.4s10.8-.11 10.8-10.8c0-3.72-81-124.2-81-124.2z"/><path class="dove-gray" d="M206.5 153.63V79.38h2.7a10.83 10.83 0 0 0 10.8-10.8v-9.9a10.83 10.83 0 0 0-10.8-10.8h-68.4a10.83 10.83 0 0 0-10.8 10.8v9.9a10.83 10.83 0 0 0 10.8 10.8h2.7v74.25s-81 122.29-81 124.2c0 10 10.8 10.8 10.8 10.8h203.4s10.8-.11 10.8-10.8c0-3.72-81-124.2-81-124.2z"/><path class="don-juan" d="M206.5 152.63V78.38h2.7a10.83 10.83 0 0 0 10.8-10.8v-9.9a10.83 10.83 0 0 0-10.8-10.8h-68.4a10.83 10.83 0 0 0-10.8 10.8v9.9a10.83 10.83 0 0 0 10.8 10.8h2.7v74.25s-81 122.29-81 124.2c0 10 10.8 10.8 10.8 10.8h203.4s10.8-.11 10.8-10.8c0-3.72-81-124.2-81-124.2z"/></g><g id="CHEMICAL"><path class="mango-tango" d="M273.14 270.43c2.95 4.64.86 8.44-4.64 8.44h-187c-5.5 0-7.63-3.83-4.74-8.5l64.63-104.49c2.89-4.68 9.76-8.5 15.26-8.5h34.68c5.5 0 12.41 3.8 15.36 8.44z"/><path class="web-orange" d="M273.14 272.43c2.95 4.64.86 8.44-4.64 8.44h-187c-5.5 0-7.63-3.83-4.74-8.5l64.63-104.49c2.89-4.68 9.76-8.5 15.26-8.5h34.68c5.5 0 12.41 3.8 15.36 8.44z"/><path class="tree-poppy" d="M272.6 270.59c3.24 5.11.95 9.29-5.1 9.29h-185c-6 0-8.4-4.21-5.21-9.36l63.58-102.79c3.18-5.15 10.74-9.36 16.79-9.36h32.68c6.05 0 13.65 4.18 16.9 9.29z"/><circle class="web-orange" cx="170.5" cy="107.63" r="4.5"/><circle class="mango-tango" cx="170.5" cy="105.63" r="4.5"/><circle class="tree-poppy" cx="170.5" cy="106.63" r="4.5"/><circle class="mango-tango" cx="181.75" cy="116.43" r="6.75"/><circle class="web-orange" cx="181.75" cy="118.43" r="6.75"/><circle class="tree-poppy" cx="181.75" cy="117.43" r="6.75"/><circle class="mango-tango" cx="163.75" cy="132.63" r="11.25"/><circle class="web-orange" cx="163.75" cy="134.63" r="11.25"/><circle class="tree-poppy" cx="163.75" cy="133.63" r="11.25"/></g><circle class="gradiant" cx="175" cy="175" r="175"/></symbol><symbol id="logo-icon"><circle class="nobel" cx="175" cy="175" r="175"/><path class="dove-gray" d="M293.45 75.78l-18.1 18.1L250 119.25l-18.17 18.17a101.5 101.5 0 0 1-55.33 184.8 152.25 152.25 0 0 0 117-246.44z"/><path class="tundora" d="M292.41 81l-17.65 17.67L250 123.42l-17.72 17.72a99 99 0 0 1-54 180.25A148.5 148.5 0 0 0 292.41 81z"/><path class="don-juan" d="M292.83 78.6L275 96.43l-25 25-17.9 17.9a100 100 0 0 1-54.52 182.07A150 150 0 0 0 292.83 78.6z"/><path class="dove-gray" d="M74.64 220.75a101.38 101.38 0 0 1 43.55-83.33L100 119.25 74.64 93.88l-18.1-18.1a152.25 152.25 0 0 0 117 246.44 101.5 101.5 0 0 1-98.9-101.47z"/><path class="tundora" d="M75.24 222.42a98.88 98.88 0 0 1 42.47-81.28L100 123.42 75.24 98.67 57.59 81a148.5 148.5 0 0 0 114.09 240.38 99 99 0 0 1-96.44-98.96z"/><path class="don-juan" d="M75 221.43a99.88 99.88 0 0 1 42.9-82.1l-17.9-17.9-25-25L57.17 78.6a150 150 0 0 0 115.25 242.8A100 100 0 0 1 75 221.43z"/><path class="web-orange" d="M99.25 123.89l18.08 18.08 7.17 7.17 25.25 25.25L175 199.64l25.25-25.25 25.25-25.25 7.17-7.17 18.08-18.08L276 98.64l18.01-18.01 7.24-7.24h-50.5L225.5 98.64l-25.25 25.25-2.56 2.56L175 149.14l-22.69-22.69-2.56-2.56-25.25-25.25-25.25-25.25h-50.5l7.24 7.24L74 98.64l25.25 25.25z"/><path class="mango-tango" d="M100.75 126.52l17.72 18.08 7.03 7.17 24.75 25.25L175 202.27l24.75-25.25 24.75-25.25 7.03-7.17 17.72-18.08L274 101.27l17.65-18.01 7.1-7.24h-49.5l-24.75 25.25-24.75 25.25-2.51 2.56L175 151.77l-22.24-22.69-2.51-2.56-24.75-25.25-24.75-25.25h-49.5l7.1 7.24L76 101.27l24.75 25.25z"/><path class="tree-poppy" d="M100 125.02l17.9 17.9 7.1 7.1 25 25 25 25 25-25 25-25 7.1-7.1 17.9-17.9 25-25 17.83-17.83 7.17-7.17h-50l-25 25-25 25-2.53 2.53L175 150.02l-22.47-22.47-2.53-2.53-25-25-25-25H50l7.17 7.17L75 100.02l25 25z"/><circle class="gradiant" cx="175" cy="175" r="175"/></symbol></svg>