<svg xmlns="http://www.w3.org/2000/svg" viewBox="0 0 1024 300"><style>.st0{fill:url(#SVGID_1_)}.st1{opacity:.7;fill:#f6871f}.st2{opacity:.78}.st2,.st3,.st4{fill:#f6871f}.st3{opacity:.85}.st4{opacity:.25}.st5{opacity:.5}.st5,.st6,.st7{fill:#f6871f}.st6{opacity:.87}.st7{opacity:.83}.st10,.st8,.st9{fill:#f6871f}.st8,.st9{opacity:.65}.st9{opacity:.46}.st10{opacity:.81}.st11{opacity:.72}.st11,.st12,.st13{fill:#f6871f}.st12{opacity:.34}.st13{opacity:.47}.st14{opacity:.82}.st14,.st15,.st16{fill:#f6871f}.st15{opacity:.56}.st16{opacity:.62}.st17{opacity:.35}.st17,.st18,.st19{fill:#f6871f}.st18{opacity:.15}.st19{opacity:.86}.st20{opacity:.8}.st20,.st21,.st22{fill:#f6871f}.st21{opacity:.4}.st22{opacity:.9}.st23{opacity:.2}.st23,.st24,.st25{fill:#f6871f}.st24{opacity:.95}.st25{opacity:.3}.st26{opacity:.45}.st26,.st27,.st28{fill:#f6871f}.st27{opacity:.68}.st28{opacity:.6}.st29{opacity:.36}.st29,.st30,.st31{fill:#f6871f}.st30{opacity:.55}.st31{opacity:.54}</style><g id="Gradient"><linearGradient id="SVGID_1_" gradientUnits="userSpaceOnUse" x1="319.048" y1="484.202" x2="704.952" y2="-184.202"><stop offset="0" stop-opacity=".3"/><stop offset=".25" stop-color="#e1e2e3" stop-opacity=".25"/><stop offset=".75" stop-color="#fff" stop-opacity=".25"/><stop offset="1" stop-opacity=".3"/></linearGradient><path class="st0" d="M0 0h1024v300H0z"/></g><g id="Shatter"><path class="st1" d="M128 0H0l178.3 150.3z"/><path class="st2" d="M0 109l66.6-18L0 0z"/><path class="st3" d="M0 171l137.2-55.4L66.6 91z"/><path class="st4" d="M0 109v62l66.6-80z"/><path class="st5" d="M128 175L0 171l137.2-55.4z"/><path class="st6" d="M17 223l111-48-128-4z"/><path class="st7" d="M178.3 256.3L17 223l111-48z"/><path class="st8" d="M128 300L17 223l111 23z"/><path class="st2" d="M0 171v55l17-3z"/><path class="st9" d="M30 300L0 226l17-3z"/><path class="st10" d="M17 223l111 77H30z"/><path class="st11" d="M0 226l30 74H0z"/><path class="st9" d="M0 0l137.2 115.6L66.6 91z"/><path class="st12" d="M128 175l50.3-24.7-41.1-34.7z"/><path class="st13" d="M128 300v-54l137.7 54z"/><path class="st14" d="M154.8 80.2L248.3 0H128z"/><path class="st15" d="M178.3 150.3l25.6-112.2-49.1 42.1z"/><path class="st16" d="M128 175l155.7 35.3-117.9 25.8z"/><path class="st17" d="M178.3 256.3L235 221l-69.2 15.1z"/><path class="st18" d="M184.3 268.1l-6-11.8L128 246z"/><path class="st5" d="M235 221l-11.3 36-45.4-.7z"/><path class="st19" d="M184.3 268.1l18.5-11.4-24.5-.4z"/><path class="st5" d="M188.2 188.7l-9.9-38.4L128 175z"/><path class="st20" d="M203.9 38.1l61.8 70.9-87.4 41.3z"/><path class="st17" d="M188.2 188.7l52.7-68-62.6 29.6z"/><path class="st21" d="M227.2 64.8l7.8-53.4-31.1 26.7z"/><path class="st4" d="M184.3 268.1l39.4-11.1-20.9-.3z"/><path class="st1" d="M230.6 286.2l-6.9-29.2-39.4 11.1z"/><path class="st20" d="M235 221l37 50.6-48.3-14.6z"/><path class="st22" d="M230.6 286.2l41.4-14.6-48.3-14.6z"/><path class="st17" d="M265.7 300l6.3-28.4-41.4 14.6z"/><path class="st23" d="M264.5 261.4l19.2-51.1L235 221z"/><path class="st22" d="M240.9 120.7l42.8 89.6-95.5-21.6z"/><path class="st24" d="M265.7 109l18 101.3-42.8-89.6z"/><path class="st2" d="M227.2 64.8l75.5-39.1L235 11.4z"/><path class="st25" d="M265.7 109l37-83.3-75.5 39.1z"/><path class="st18" d="M248.3 0l54.4 25.7L235 11.4z"/><path class="st22" d="M311.7 0l-9 25.7L248.3 0z"/><path class="st3" d="M265.7 109l202-109-165 25.7z"/><path class="st21" d="M311.7 0l-9 25.7L467.7 0z"/><path class="st17" d="M386.9 43.6L281.3 197l-15.6-88z"/><path class="st26" d="M432.3 131L341 110.3l45.9-66.7z"/><path class="st5" d="M440.2 14.8L432.3 131l-45.4-87.4z"/><path class="st18" d="M283.7 210.3l57.3-100-59.7 86.7z"/><path class="st21" d="M272 271.6l86.3-25.3-93.8 15.1z"/><path class="st19" d="M283.7 210.3l37.4 42-56.6 9.1z"/><path class="st27" d="M309.8 164.7l11.3 87.6-37.4-42z"/><path class="st20" d="M363.7 205.6L341 110.3l91.3 20.7z"/><path class="st28" d="M309.8 164.7l53.9 40.9-22.7-95.3z"/><path class="st22" d="M321.1 252.3l42.6-46.7-53.9-40.9z"/><path class="st29" d="M358.3 246.3l5.4-40.7-42.6 46.7z"/><path class="st20" d="M272 271.6L386.9 300H265.7z"/><path class="st26" d="M432.3 131l-7.3 74.6h-61.3z"/><path class="st30" d="M386.9 300l-28.6-53.7-86.3 25.3z"/><path class="st20" d="M425 205.6l-66.7 40.7 5.4-40.7z"/><path class="st26" d="M386.9 300l38.1-94.4-66.7 40.7z"/><path class="st23" d="M434.4 100.9l87.3-89.5-81.5 3.4z"/><path class="st30" d="M425 205.6l96.7-194.2-87.3 89.5z"/><path class="st22" d="M467.7 0L483 13l-42.8 1.8z"/><path class="st20" d="M521.7 11.4L515 0l-32 13z"/><path class="st25" d="M467.7 0L483 13l32-13z"/><path class="st28" d="M521.7 11.4l82-11.4H515z"/><path class="st20" d="M480.8 93.4l122.9-20.5-82-61.5z"/><path class="st22" d="M603.7 0v72.9l-82-61.5z"/><path class="st4" d="M480.8 93.4l17.7 112.2L603.7 72.9z"/><path class="st31" d="M461.5 262.4l37-56.8-17.7-112.2z"/><path class="st20" d="M429.3 197l38.4 13.3 13.1-116.9z"/><path class="st22" d="M425 205.6l42.7 4.7-38.4-13.3z"/><path class="st4" d="M461.5 262.4L425 205.6l42.7 4.7z"/><path class="st28" d="M399.8 268.1l61.7-5.7-36.5-56.8z"/><path class="st20" d="M386.9 300l74.6-37.6-61.7 5.7z"/><path class="st18" d="M493.5 213.2l39 72.6-71-23.4z"/><path class="st22" d="M414.2 286.2l20.2 13.8h-47.5z"/><path class="st17" d="M461.5 262.4L434.4 300l-20.2-13.8z"/><path class="st22" d="M532.5 285.8L434.4 300l27.1-37.6z"/><path class="st5" d="M518.1 259l-19.6-53.4-5 7.6z"/><path class="st22" d="M532.5 162.7L518.1 259l-19.6-53.4z"/><path class="st20" d="M603.7 72.9L624 238.7l-91.5-76z"/><path class="st25" d="M518.1 259L624 238.7l-91.5-76z"/><path class="st22" d="M532.5 285.8l91.5-47.1L518.1 259z"/><path class="st21" d="M434.4 300h98.1v-14.2z"/><path class="st25" d="M624 238.7V300l-57.1-31.9z"/><path class="st28" d="M532.5 285.8h66.1l-31.7-17.7z"/><path class="st18" d="M532.5 300l66.1-14.2-66.5-1.6z"/><path class="st22" d="M624 300l-25.4-14.2-66.1 14.2z"/><path class="st25" d="M624 238.7L750.3 150l-58.6 150z"/><path class="st8" d="M624 238.7l67.7 61.3H624z"/><path class="st22" d="M610.1 125.7L750.3 150 624 238.7z"/><path class="st23" d="M603.7 72.9h133l-126.6 52.8z"/><path class="st26" d="M750.3 150l-13.6-77.1-126.6 52.8z"/><path class="st28" d="M603.7 72.9L714.7 0l22 72.9z"/><path class="st26" d="M603.7 0h111l-111 72.9z"/><path class="st24" d="M750.3 150l111 41.3L829 93.4z"/><path class="st20" d="M736.7 72.9L829 93.4 750.3 150z"/><path class="st18" d="M714.7 0L836 60.3l-99.3 12.6z"/><path class="st21" d="M829 93.4l7-33.1-99.3 12.6z"/><path class="st28" d="M861.3 191.3L943 81 829 93.4z"/><path class="st22" d="M836 60.3L943 81 829 93.4z"/><path class="st20" d="M714.7 0h146.6L836 60.3z"/><path class="st25" d="M943 81L861.3 0 836 60.3z"/><path class="st18" d="M861.3 191.3l-135.7 21.9 24.7-63.2z"/><path class="st20" d="M691.7 300l169.6-108.7-135.7 21.9z"/><path class="st18" d="M943 81l24 96.9-105.7 13.4z"/><path class="st20" d="M861.3 0H967l-24 81z"/><path class="st5" d="M861.3 191.3l65 94.9L967 177.9z"/><path class="st25" d="M691.7 300l113.2-37.6 85.6-28.4-29.2-42.7z"/><path class="st22" d="M805.8 300H691.7l123.6-41z"/><path class="st5" d="M890.5 234l-84.7 66 9.5-41z"/><path class="st22" d="M926.3 286.2L805.8 300l84.7-66z"/><path class="st18" d="M946.7 232.1l77.3-26.5-57-27.7z"/><path class="st20" d="M926.3 286.2l97.7-80.6-77.3 26.5z"/><path class="st5" d="M805.8 300h120.5v-13.8z"/><path class="st21" d="M1024 205.6v86.5l-97.7-5.9z"/><path class="st18" d="M1024 300l-97.7-13.8V300z"/><path class="st22" d="M1024 292.1l-97.7-5.9L1024 300z"/><path class="st21" d="M967 177.9l57-52.2v79.9z"/><path class="st22" d="M949 105.2l75 20.5-57 52.2z"/><path class="st3" d="M943 81l81-20.7-75 44.9z"/><path class="st21" d="M1024 125.7l-75-20.5 75-44.9z"/><path class="st22" d="M967 0l57 60.3V0z"/><path class="st17" d="M943 81l81-20.7L967 0z"/></g></svg>