<svg id="Layer_1" data-name="Layer 1" xmlns="http://www.w3.org/2000/svg" viewBox="0 0 350 350"><defs><style>.cls-1{fill:#cccccb}.cls-2{fill:#595b5c}.cls-3{fill:#cb7a29}.cls-4{fill:#fcb549}.cls-5{fill:#f89923}.cls-6{fill:url(#linear-gradient)}</style><linearGradient id="linear-gradient" x1="175" x2="175" y2="350" gradientUnits="userSpaceOnUse"><stop offset="0" stop-color="#fff" stop-opacity=".1"/><stop offset="1" stop-opacity="0"/></linearGradient></defs><title>MacroMealeyContactIcon</title><circle class="cls-1" cx="175" cy="175" r="175"/><rect class="cls-2" x="62.5" y="112.5" width="225" height="125" rx="12" ry="12"/><path class="cls-3" d="M275.5 113.5h-201a12 12 0 0 0-12 12v101a12 12 0 0 0 12 12h201a12 12 0 0 0 12-12v-101a12 12 0 0 0-12-12zm-4 4a11.88 11.88 0 0 1 2.84.36L175 168l-99.34-50.14a11.88 11.88 0 0 1 2.84-.36zm12 105a12 12 0 0 1-12 12h-193a12 12 0 0 1-12-12v-93A12 12 0 0 1 70 121l105 55 105-55a12 12 0 0 1 3.53 8.48z"/><path class="cls-4" d="M275.5 111.5h-201a12 12 0 0 0-12 12v101a12 12 0 0 0 12 12h201a12 12 0 0 0 12-12v-101a12 12 0 0 0-12-12zm-4 4a11.88 11.88 0 0 1 2.84.36L175 166l-99.34-50.14a11.88 11.88 0 0 1 2.84-.36zm12 105a12 12 0 0 1-12 12h-193a12 12 0 0 1-12-12v-93A12 12 0 0 1 70 119l105 55 105-55a12 12 0 0 1 3.53 8.48z"/><path class="cls-5" d="M275.5 112.5h-201a12 12 0 0 0-12 12v101a12 12 0 0 0 12 12h201a12 12 0 0 0 12-12v-101a12 12 0 0 0-12-12zm-4 4a11.88 11.88 0 0 1 2.84.36L175 167l-99.34-50.14a11.88 11.88 0 0 1 2.84-.36zm12 105a12 12 0 0 1-12 12h-193a12 12 0 0 1-12-12v-93A12 12 0 0 1 70 120l105 55 105-55a12 12 0 0 1 3.53 8.48z"/><circle class="cls-6" cx="175" cy="175" r="175"/></svg>