<?xml version="1.0" encoding="utf-8"?>
<!-- Generator: Adobe Illustrator 20.0.0, SVG Export Plug-In . SVG Version: 6.00 Build 0)  -->
<svg version="1.1" id="Layer_1" xmlns="http://www.w3.org/2000/svg" xmlns:xlink="http://www.w3.org/1999/xlink" x="0px" y="0px"
	 viewBox="0 0 350 350" style="enable-background:new 0 0 350 350;" xml:space="preserve">
<style type="text/css">
	.st0{fill:#3C3333;}
</style>
<g>
	<path class="st0" d="M84.8,289.9c-1.9,1.9-5.1,1.9-7.1,0l-17.7-17.7c-1.9-1.9-1.9-5.1,0-7.1L265.2,60.1c1.9-1.9,5.1-1.9,7.1,0
		l17.7,17.7c1.9,1.9,1.9,5.1,0,7.1L84.8,289.9z"/>
</g>
<g>
	<path class="st0" d="M272.2,289.9c-1.9,1.9-5.1,1.9-7.1,0L60.1,84.8c-1.9-1.9-1.9-5.1,0-7.1l17.7-17.7c1.9-1.9,5.1-1.9,7.1,0
		l205.1,205.1c1.9,1.9,1.9,5.1,0,7.1L272.2,289.9z"/>
</g>
</svg>
