<?xml version="1.0" encoding="utf-8"?>
<!-- Generator: Adobe Illustrator 20.0.0, SVG Export Plug-In . SVG Version: 6.00 Build 0)  -->
<svg version="1.1" id="Layer_1" xmlns="http://www.w3.org/2000/svg" xmlns:xlink="http://www.w3.org/1999/xlink" x="0px" y="0px"
	 viewBox="0 0 350 350" style="enable-background:new 0 0 350 350;" xml:space="preserve">
<style type="text/css">
	.st0{fill:#DCDBDB;}
</style>
<g>
	<path class="st0" d="M325,112.5c0,2.8-2.2,5-5,5H30c-2.8,0-5-2.2-5-5v-25c0-2.8,2.2-5,5-5h290c2.8,0,5,2.2,5,5V112.5z"/>
</g>
<g>
	<path class="st0" d="M325,187.5c0,2.8-2.2,5-5,5H30c-2.8,0-5-2.2-5-5v-25c0-2.8,2.2-5,5-5h290c2.8,0,5,2.2,5,5V187.5z"/>
</g>
<g>
	<path class="st0" d="M325,262.5c0,2.8-2.2,5-5,5H30c-2.8,0-5-2.2-5-5v-25c0-2.8,2.2-5,5-5h290c2.8,0,5,2.2,5,5V262.5z"/>
</g>
</svg>
