<svg id="Layer_1" data-name="Layer 1" xmlns="http://www.w3.org/2000/svg" xmlns:xlink="http://www.w3.org/1999/xlink" viewBox="0 0 350 350"><defs><style>.cls-1{fill:#cccccb;}.cls-2{fill:#404140;}.cls-3{fill:#727374;}.cls-4{fill:#595b5c;}.cls-5{fill:#cb7a29;}.cls-6{fill:#fcb549;}.cls-7{fill:#f89923;}.cls-8{fill:url(#linear-gradient);}</style><linearGradient id="linear-gradient" x1="175" x2="175" y2="350" gradientUnits="userSpaceOnUse"><stop offset="0" stop-color="#fff" stop-opacity="0.1"/><stop offset="1" stop-opacity="0"/></linearGradient></defs><title>MacroMealeyAboutIcon</title><circle class="cls-1" cx="175" cy="175" r="175"/><path class="cls-2" d="M275,176.88a100,100,0,0,1-145.37,88.26c-5.64-2.87-52,8.57-56.95,4.72,0,0,35.22-19.62,32.53-22.25A100,100,0,1,1,275,176.88Z" transform="translate(0 0)"/><path class="cls-3" d="M275,173.12a100,100,0,0,1-143.81,90.79c-5.69-2.78-51.84,9.48-56.86,5.72,0,0,34.87-20.23,32.13-22.81A100,100,0,1,1,275,173.12Z" transform="translate(0 0)"/><path class="cls-4" d="M275,175a100,100,0,0,1-144.6,89.53c-5.66-2.83-51.92,9-56.9,5.22,0,0,35-19.93,32.33-22.53A100,100,0,1,1,275,175Z" transform="translate(0 0)"/><g id="iIcon"><rect class="cls-5" x="162.5" y="151" width="25" height="100" rx="12" ry="12"/><rect class="cls-6" x="162.5" y="149" width="25" height="100" rx="12" ry="12"/><rect class="cls-7" x="162.5" y="150" width="25" height="100" rx="12" ry="12"/><circle class="cls-5" cx="175" cy="129" r="12.5"/><circle class="cls-6" cx="175" cy="127" r="12.5"/><circle class="cls-7" cx="175" cy="128" r="12.5"/></g><circle class="cls-8" cx="175" cy="175" r="175"/></svg>