<svg id="Layer_1" data-name="Layer 1" xmlns="http://www.w3.org/2000/svg" xmlns:xlink="http://www.w3.org/1999/xlink" viewBox="0 0 350 350"><defs><style>.cls-1{fill:#cccccb;}.cls-2{fill:#404140;}.cls-3{fill:#727374;}.cls-4{fill:#595b5c;}.cls-5{fill:#fcb549;}.cls-6{fill:#cb7a29;}.cls-7{fill:#f89923;}.cls-8{fill:url(#linear-gradient);}</style><linearGradient id="linear-gradient" x1="175" x2="175" y2="350" gradientUnits="userSpaceOnUse"><stop offset="0" stop-color="#fff" stop-opacity="0.1"/><stop offset="1" stop-opacity="0"/></linearGradient></defs><title>MacroMealeyBlogIcon</title><circle class="cls-1" cx="175" cy="175" r="175"/><path class="cls-2" d="M274,229.89H135.25L86.5,263.19l15.75-33.29H76a13.56,13.56,0,0,1-13.5-13.54v-114A13.56,13.56,0,0,1,76,88.81H274a13.56,13.56,0,0,1,13.5,13.54v114A13.56,13.56,0,0,1,274,229.89Z" transform="translate(0 0)"/><path class="cls-3" d="M274,227.89H135.25L86.5,261.19l15.75-33.29H76a13.56,13.56,0,0,1-13.5-13.54v-114A13.56,13.56,0,0,1,76,86.81H274a13.56,13.56,0,0,1,13.5,13.54v114A13.56,13.56,0,0,1,274,227.89Z" transform="translate(0 0)"/><path class="cls-4" d="M274,228.89H135.25L86.5,262.19l15.75-33.29H76a13.56,13.56,0,0,1-13.5-13.54v-114A13.56,13.56,0,0,1,76,87.81H274a13.56,13.56,0,0,1,13.5,13.54v114A13.56,13.56,0,0,1,274,228.89Z" transform="translate(0 0)"/><g id="PEN"><rect class="cls-5" x="221.58" y="105.13" width="3" height="20" transform="translate(-16.07 191.46) rotate(-45)"/><rect class="cls-6" x="221.58" y="106.13" width="3" height="20" transform="translate(-16.78 191.76) rotate(-45)"/><rect class="cls-7" x="221.58" y="105.63" width="3" height="20" transform="translate(-16.42 191.61) rotate(-45)"/><path class="cls-5" d="M232.63,119.73l-14.14-14.14,2.56-2.56a4.39,4.39,0,0,1,6.19,0l8,8a4.39,4.39,0,0,1,0,6.19Z" transform="translate(0 0)"/><path class="cls-6" d="M232.63,120.73l-14.14-14.14,2.56-2.56a4.39,4.39,0,0,1,6.19,0l8,8a4.39,4.39,0,0,1,0,6.19Z" transform="translate(0 0)"/><path class="cls-7" d="M232.63,120.23l-14.14-14.14,2.56-2.56a4.39,4.39,0,0,1,6.19,0l8,8a4.39,4.39,0,0,1,0,6.19Z" transform="translate(0 0)"/><polygon class="cls-5" points="122.32 210.24 125.15 198.92 130.1 201.04 132.22 206 137.17 208.12 139.29 213.07 127.98 215.89 122.32 210.24"/><polygon class="cls-6" points="122.32 211.24 125.15 199.92 130.1 202.04 132.22 207 137.17 209.12 139.29 214.07 127.98 216.89 122.32 211.24"/><polygon class="cls-7" points="122.32 210.74 125.15 199.42 130.1 201.54 132.22 206.5 137.17 208.62 139.29 213.57 127.98 216.39 122.32 210.74"/><polygon class="cls-5" points="126.56 197.51 213.54 110.53 227.68 124.68 140.71 211.65 138.58 206.7 133.63 204.58 131.51 199.63 126.56 197.51"/><polygon class="cls-6" points="126.56 198.51 213.54 111.53 227.68 125.68 140.71 212.65 138.58 207.7 133.63 205.58 131.51 200.63 126.56 198.51"/><polygon class="cls-7" points="126.56 198.01 213.54 111.03 227.68 125.18 140.71 212.15 138.58 207.2 133.63 205.08 131.51 200.13 126.56 198.01"/><polygon class="cls-5" points="121.61 212.36 125.86 216.6 118.78 219.43 121.61 212.36"/><polygon class="cls-6" points="121.61 213.36 125.86 217.6 118.78 220.43 121.61 213.36"/><polygon class="cls-7" points="121.61 212.86 125.86 217.1 118.78 219.93 121.61 212.86"/></g><circle class="cls-8" cx="175" cy="175" r="175"/></svg>