<svg id="icon--spritesheet" data-name="Icon Spritesheet" xmlns="http://www.w3.org/2000/svg" xmlns:xlink="http://www.w3.org/1999/xlink" viewBox="0 0 350 350">
  <defs>
    <style>
      .nobel{fill:#B5B5B5;}
      .tundora{fill:#423C3C;}
      .dove-gray{fill:#756B6B;}
      .don-juan{fill:#5B5252;}
      .dixie{fill:#E5971A;}
      .lightning-yellow{fill:#FFC31A;}
      .sin{fill:#FFAC1A;}
      .mango-tango{fill:#DB7200;}
      .web-orange{fill:#FCA800;}
      .tree-poppy{fill:#F78700;}
      .gradiant{fill:url(#linear-gradient);}
    </style>
    <linearGradient id="linear-gradient" x1="175" x2="175" y2="350" gradientUnits="userSpaceOnUse">
      <stop offset="0" stop-color="#fff" stop-opacity="0.1"/>
      <stop offset="1" stop-opacity="0"/>
    </linearGradient>
  </defs>
  <symbol id="about-icon">
    <circle class="nobel" cx="175" cy="175" r="175"/>
    <path class="tundora" d="M275,176.88a100,100,0,0,1-145.37,88.26c-5.64-2.87-52,8.57-56.95,4.72,0,0,35.22-19.62,32.53-22.25A100,100,0,1,1,275,176.88Z" transform="translate(0 0)"/>
    <path class="dove-gray" d="M275,173.12a100,100,0,0,1-143.81,90.79c-5.69-2.78-51.84,9.48-56.86,5.72,0,0,34.87-20.23,32.13-22.81A100,100,0,1,1,275,173.12Z" transform="translate(0 0)"/>
    <path class="don-juan" d="M275,175a100,100,0,0,1-144.6,89.53c-5.66-2.83-51.92,9-56.9,5.22,0,0,35-19.93,32.33-22.53A100,100,0,1,1,275,175Z" transform="translate(0 0)"/>
    <g id="iIcon">
      <rect class="mango-tango" x="162.5" y="151" width="25" height="100" rx="12" ry="12"/>
      <rect class="web-orange" x="162.5" y="149" width="25" height="100" rx="12" ry="12"/>
      <rect class="tree-poppy" x="162.5" y="150" width="25" height="100" rx="12" ry="12"/>
      <circle class="mango-tango" cx="175" cy="129" r="12.5"/>
      <circle class="web-orange" cx="175" cy="127" r="12.5"/>
      <circle class="tree-poppy" cx="175" cy="128" r="12.5"/>
    </g>
    <circle class="gradiant" cx="175" cy="175" r="175"/>
  </symbol>
  <symbol id="blog-icon">
    <circle class="nobel" cx="175" cy="175" r="175"/>
    <path class="tundora" d="M274,229.89H135.25L86.5,263.19l15.75-33.29H76a13.56,13.56,0,0,1-13.5-13.54v-114A13.56,13.56,0,0,1,76,88.81H274a13.56,13.56,0,0,1,13.5,13.54v114A13.56,13.56,0,0,1,274,229.89Z" transform="translate(0 0)"/>
    <path class="dove-gray" d="M274,227.89H135.25L86.5,261.19l15.75-33.29H76a13.56,13.56,0,0,1-13.5-13.54v-114A13.56,13.56,0,0,1,76,86.81H274a13.56,13.56,0,0,1,13.5,13.54v114A13.56,13.56,0,0,1,274,227.89Z" transform="translate(0 0)"/>
    <path class="don-juan" d="M274,228.89H135.25L86.5,262.19l15.75-33.29H76a13.56,13.56,0,0,1-13.5-13.54v-114A13.56,13.56,0,0,1,76,87.81H274a13.56,13.56,0,0,1,13.5,13.54v114A13.56,13.56,0,0,1,274,228.89Z" transform="translate(0 0)"/>
    <g id="PEN">
      <rect class="web-orange" x="221.58" y="105.13" width="3" height="20" transform="translate(-16.07 191.46) rotate(-45)"/>
      <rect class="mango-tango" x="221.58" y="106.13" width="3" height="20" transform="translate(-16.78 191.76) rotate(-45)"/>
      <rect class="tree-poppy" x="221.58" y="105.63" width="3" height="20" transform="translate(-16.42 191.61) rotate(-45)"/>
      <path class="web-orange" d="M232.63,119.73l-14.14-14.14,2.56-2.56a4.39,4.39,0,0,1,6.19,0l8,8a4.39,4.39,0,0,1,0,6.19Z" transform="translate(0 0)"/>
      <path class="mango-tango" d="M232.63,120.73l-14.14-14.14,2.56-2.56a4.39,4.39,0,0,1,6.19,0l8,8a4.39,4.39,0,0,1,0,6.19Z" transform="translate(0 0)"/>
      <path class="tree-poppy" d="M232.63,120.23l-14.14-14.14,2.56-2.56a4.39,4.39,0,0,1,6.19,0l8,8a4.39,4.39,0,0,1,0,6.19Z" transform="translate(0 0)"/>
      <polygon class="web-orange" points="122.32 210.24 125.15 198.92 130.1 201.04 132.22 206 137.17 208.12 139.29 213.07 127.98 215.89 122.32 210.24"/>
      <polygon class="mango-tango" points="122.32 211.24 125.15 199.92 130.1 202.04 132.22 207 137.17 209.12 139.29 214.07 127.98 216.89 122.32 211.24"/>
      <polygon class="tree-poppy" points="122.32 210.74 125.15 199.42 130.1 201.54 132.22 206.5 137.17 208.62 139.29 213.57 127.98 216.39 122.32 210.74"/>
      <polygon class="web-orange" points="126.56 197.51 213.54 110.53 227.68 124.68 140.71 211.65 138.58 206.7 133.63 204.58 131.51 199.63 126.56 197.51"/>
      <polygon class="mango-tango" points="126.56 198.51 213.54 111.53 227.68 125.68 140.71 212.65 138.58 207.7 133.63 205.58 131.51 200.63 126.56 198.51"/>
      <polygon class="tree-poppy" points="126.56 198.01 213.54 111.03 227.68 125.18 140.71 212.15 138.58 207.2 133.63 205.08 131.51 200.13 126.56 198.01"/>
      <polygon class="web-orange" points="121.61 212.36 125.86 216.6 118.78 219.43 121.61 212.36"/>
      <polygon class="mango-tango" points="121.61 213.36 125.86 217.6 118.78 220.43 121.61 213.36"/>
      <polygon class="tree-poppy" points="121.61 212.86 125.86 217.1 118.78 219.93 121.61 212.86"/>
    </g>
    <circle class="gradiant" cx="175" cy="175" r="175"/>
  </symbol>
  <symbol id="contact-icon">
    <circle class="nobel" cx="175" cy="175" r="175"/>
    <rect class="don-juan" x="62.5" y="112.5" width="225" height="125" rx="12" ry="12"/>
    <path class="tree-poppy" d="M275.5,113.5H74.5a12,12,0,0,0-12,12v101a12,12,0,0,0,12,12h201a12,12,0,0,0,12-12v-101A12,12,0,0,0,275.5,113.5Zm-4,4a11.88,11.88,0,0,1,2.84.36L175,168,75.66,117.86a11.88,11.88,0,0,1,2.84-.36Zm12,105a12,12,0,0,1-12,12H78.5a12,12,0,0,1-12-12v-93A12,12,0,0,1,70,121l105,55,105-55a12,12,0,0,1,3.53,8.48Z" transform="translate(0 0)"/>
    <path class="web-orange" d="M275.5,111.5H74.5a12,12,0,0,0-12,12v101a12,12,0,0,0,12,12h201a12,12,0,0,0,12-12v-101A12,12,0,0,0,275.5,111.5Zm-4,4a11.88,11.88,0,0,1,2.84.36L175,166,75.66,115.86a11.88,11.88,0,0,1,2.84-.36Zm12,105a12,12,0,0,1-12,12H78.5a12,12,0,0,1-12-12v-93A12,12,0,0,1,70,119l105,55,105-55a12,12,0,0,1,3.53,8.48Z" transform="translate(0 0)"/>
    <path class="tree-poppy" d="M275.5,112.5H74.5a12,12,0,0,0-12,12v101a12,12,0,0,0,12,12h201a12,12,0,0,0,12-12v-101A12,12,0,0,0,275.5,112.5Zm-4,4a11.88,11.88,0,0,1,2.84.36L175,167,75.66,116.86a11.88,11.88,0,0,1,2.84-.36Zm12,105a12,12,0,0,1-12,12H78.5a12,12,0,0,1-12-12v-93A12,12,0,0,1,70,120l105,55,105-55a12,12,0,0,1,3.53,8.48Z" transform="translate(0 0)"/>
    <circle class="gradiant" cx="175" cy="175" r="175"/>
  </symbol>
  <symbol id="lab-icon">
    <circle class="nobel" cx="175" cy="175" r="175"/>
    <g id="FLASK">
      <path class="tundora" d="M206.5,150.63V76.38h2.7A10.83,10.83,0,0,0,220,65.58v-9.9a10.83,10.83,0,0,0-10.8-10.8H140.8A10.83,10.83,0,0,0,130,55.68v9.9a10.83,10.83,0,0,0,10.8,10.8h2.7v74.25s-81,122.29-81,124.2c0,10,10.8,10.8,10.8,10.8H276.7s10.8-.11,10.8-10.8C287.5,271.11,206.5,150.63,206.5,150.63Z" transform="translate(0 0)"/>
      <path class="dove-gray" d="M206.5,153.63V79.38h2.7A10.83,10.83,0,0,0,220,68.58v-9.9a10.83,10.83,0,0,0-10.8-10.8H140.8A10.83,10.83,0,0,0,130,58.68v9.9a10.83,10.83,0,0,0,10.8,10.8h2.7v74.25s-81,122.29-81,124.2c0,10,10.8,10.8,10.8,10.8H276.7s10.8-.11,10.8-10.8C287.5,274.11,206.5,153.63,206.5,153.63Z" transform="translate(0 0)"/>
      <path class="don-juan" d="M206.5,152.63V78.38h2.7A10.83,10.83,0,0,0,220,67.58v-9.9a10.83,10.83,0,0,0-10.8-10.8H140.8A10.83,10.83,0,0,0,130,57.68v9.9a10.83,10.83,0,0,0,10.8,10.8h2.7v74.25s-81,122.29-81,124.2c0,10,10.8,10.8,10.8,10.8H276.7s10.8-.11,10.8-10.8C287.5,273.11,206.5,152.63,206.5,152.63Z" transform="translate(0 0)"/>
    </g>
    <g id="CHEMICAL">
      <path class="mango-tango" d="M273.14,270.43c2.95,4.64.86,8.44-4.64,8.44H81.5c-5.5,0-7.63-3.83-4.74-8.5l64.63-104.49c2.89-4.68,9.76-8.5,15.26-8.5h34.68c5.5,0,12.41,3.8,15.36,8.44Z" transform="translate(0 0)"/>
      <path class="web-orange" d="M273.14,272.43c2.95,4.64.86,8.44-4.64,8.44H81.5c-5.5,0-7.63-3.83-4.74-8.5l64.63-104.49c2.89-4.68,9.76-8.5,15.26-8.5h34.68c5.5,0,12.41,3.8,15.36,8.44Z" transform="translate(0 0)"/>
      <path class="tree-poppy" d="M272.6,270.59c3.24,5.11.95,9.29-5.1,9.29H82.5c-6,0-8.4-4.21-5.21-9.36l63.58-102.79c3.18-5.15,10.74-9.36,16.79-9.36h32.68c6.05,0,13.65,4.18,16.9,9.29Z" transform="translate(0 0)"/>
      <circle class="web-orange" cx="170.5" cy="107.63" r="4.5"/>
      <circle class="mango-tango" cx="170.5" cy="105.63" r="4.5"/>
      <circle class="tree-poppy" cx="170.5" cy="106.63" r="4.5"/>
      <circle class="mango-tango" cx="181.75" cy="116.43" r="6.75"/>
      <circle class="web-orange" cx="181.75" cy="118.43" r="6.75"/>
      <circle class="tree-poppy" cx="181.75" cy="117.43" r="6.75"/>
      <circle class="mango-tango" cx="163.75" cy="132.63" r="11.25"/>
      <circle class="web-orange" cx="163.75" cy="134.63" r="11.25"/>
      <circle class="tree-poppy" cx="163.75" cy="133.63" r="11.25"/>
    </g>
    <circle class="gradiant" cx="175" cy="175" r="175"/>
  </symbol>
  <symbol id="logo-icon">
    <circle class="nobel" cx="175" cy="175" r="175"/>
    <path class="dove-gray" d="M293.45,75.78l-18.1,18.1L250,119.25l-18.17,18.17a101.5,101.5,0,0,1-55.33,184.8,152.25,152.25,0,0,0,117-246.44Z"/>
    <path class="tundora" d="M292.41,81,274.76,98.67,250,123.42l-17.72,17.72a99,99,0,0,1-54,180.25A148.5,148.5,0,0,0,292.41,81Z"/>
    <path class="don-juan" d="M292.83,78.6,275,96.43l-25,25-17.9,17.9A100,100,0,0,1,177.58,321.4,150,150,0,0,0,292.83,78.6Z"/>
    <path class="dove-gray" d="M74.64,220.75a101.38,101.38,0,0,1,43.55-83.33L100,119.25,74.64,93.88l-18.1-18.1a152.25,152.25,0,0,0,117,246.44A101.5,101.5,0,0,1,74.64,220.75Z"/>
    <path class="tundora" d="M75.24,222.42a98.88,98.88,0,0,1,42.47-81.28L100,123.42,75.24,98.67,57.59,81A148.5,148.5,0,0,0,171.68,321.38,99,99,0,0,1,75.24,222.42Z"/>
    <path class="don-juan" d="M75,221.43a99.88,99.88,0,0,1,42.9-82.1L100,121.43l-25-25L57.17,78.6A150,150,0,0,0,172.42,321.4,100,100,0,0,1,75,221.43Z"/>
    <polygon class="web-orange" points="99.25 123.89 117.33 141.97 124.5 149.14 149.75 174.39 175 199.64 200.25 174.39 225.5 149.14 232.67 141.97 250.75 123.89 276 98.64 294.01 80.63 301.25 73.39 287.91 73.39 250.75 73.39 225.5 98.64 200.25 123.89 197.69 126.45 175 149.14 152.31 126.45 149.75 123.89 124.5 98.64 99.25 73.39 62.09 73.39 48.75 73.39 55.99 80.63 74 98.64 99.25 123.89"/>
    <polygon class="mango-tango" points="100.75 126.52 118.47 144.6 125.5 151.77 150.25 177.02 175 202.27 199.75 177.02 224.5 151.77 231.53 144.6 249.25 126.52 274 101.27 291.65 83.26 298.75 76.02 285.68 76.02 249.25 76.02 224.5 101.27 199.75 126.52 197.24 129.08 175 151.77 152.76 129.08 150.25 126.52 125.5 101.27 100.75 76.02 64.33 76.02 51.25 76.02 58.35 83.26 76 101.27 100.75 126.52"/>
    <polygon class="tree-poppy" points="100 125.02 117.9 142.92 125 150.02 150 175.02 175 200.02 200 175.02 225 150.02 232.1 142.92 250 125.02 275 100.02 292.83 82.19 300 75.02 286.79 75.02 250 75.02 225 100.02 200 125.02 197.47 127.55 175 150.02 152.53 127.55 150 125.02 125 100.02 100 75.02 63.21 75.02 50 75.02 57.17 82.19 75 100.02 100 125.02"/>
    <circle class="gradiant" cx="175" cy="175" r="175"/>
  </symbol>
</svg>
